# xmcd CD database file generated by Grip 2.96
# 
# Track frame offsets:
#       150
#       21620
#       39122
#       58362
#       82832
#       98397
#       116047
#       133037
#       148787
#       163635
# 
# Disc length: 2370 seconds
# 
# Revision: 0
# Processed by: cddbd v1.4PL0 Copyright (c) Steve Scherf et al.
# Submitted via: Grip 2.96
# 
DISCID=8209400a
DTITLE=Makoto Kubota and Sunset Gang - SECOND LINE
DYEAR=1900
DGENRE=
TTITLE0=RHAPSODY
TTITLE1=MAMA LIZA'S CAFE
TTITLE2=KEY! POCKY A-WAY
TTITLE3=DIXIE CHICKEN ~ SWING LOW, SWEET CHARIOT
TTITLE4=ROOCHOO GUMBO ~ HOODOO CHUNKO
TTITLE5=CHINA BOAT SONG
TTITLE6=LOVER PLEASE ~ STOP THAT TRAIN
TTITLE7=IKO IKO
TTITLE8=ISSYO NI ARUITE!!
TTITLE9=WALKING TO NEW ORLEANS
EXTD=
EXTT0=
EXTT1=
EXTT2=
EXTT3=
EXTT4=
EXTT5=
EXTT6=
EXTT7=
EXTT8=
EXTT9=
PLAYORDER=
